<svg id="Layer_1" enable-background="new 0 0 505.238 505.238" height="512" viewBox="0 0 505.238 505.238" width="512" xmlns="http://www.w3.org/2000/svg"><g id="XMLID_1456_"><path id="XMLID_1794_" d="m397.619 33.109c-.949 0-1.892.032-2.828.084-19.181-52.272-96.159-39.853-97.172 16.583-.099 28.601 24.285 51.628 52.828 49.915 19.186 52.279 96.161 39.847 97.172-16.583 0-27.613-22.386-49.999-50-49.999z"/><path id="XMLID_1870_" d="m154.791 99.691c28.543 1.711 52.926-21.312 52.828-49.916-1.014-56.442-78.003-68.848-97.172-16.582-28.543-1.71-52.926 21.312-52.828 49.916 1.014 56.442 78.003 68.848 97.172 16.582z"/><path id="XMLID_1871_" d="m185.119 256.296c12.166 0 22.108-9.706 22.488-21.782l-44.988-5.698v4.98c0 12.406 10.094 22.5 22.5 22.5z"/><path id="XMLID_1878_" d="m397.619 163.109c-26.846 0-51.453-13.475-66.115-34.964-43.02-8.075-72.98-54.041-61.552-97.519-11.487-1.126-23.179-1.126-34.667 0 11.43 43.483-18.532 89.441-61.552 97.519-19.304 29.48-60.227 42.983-93.569 30.11-4.962 16.663-7.545 34.06-7.545 51.521v78.604c0 6.418.278 12.781.82 19.078l122.727 46.023c19.067-52.599 93.86-52.566 112.906 0l122.727-46.023c.542-6.297.82-12.661.82-19.078v-78.604c0-17.461-2.583-34.858-7.545-51.521-8.566 3.139-17.814 4.854-27.455 4.854zm-160 70.687c-2.892 69.666-102.134 69.612-105 0v-39.02l105 13.3zm135 0c-2.892 69.665-102.134 69.612-105 0v-25.72l105-13.3z"/><path id="XMLID_1880_" d="m320.119 256.296c12.406 0 22.5-10.093 22.5-22.5v-4.98l-44.988 5.698c.38 12.076 10.322 21.782 22.488 21.782z"/><path id="XMLID_1909_" d="m282.619 373.796c0-16.542-13.458-30-30-30-39.799 1.648-39.787 58.358 0 60 16.542 0 30-13.458 30-30z"/><path id="XMLID_1910_" d="m252.619 433.796c-29.408 0-53.925-21.273-59.014-49.235l-114.488-42.934c19.259 77.606 79.801 140.185 160.228 160.291l13.274 3.32 13.273-3.32c80.427-20.106 140.97-82.685 160.229-160.291l-114.488 42.933c-5.089 27.962-29.606 49.236-59.014 49.236z"/></g></svg>