<svg id="Capa_1" enable-background="new 0 0 512 512" height="512" viewBox="0 0 512 512" width="512" xmlns="http://www.w3.org/2000/svg"><g><g><path d="m444.243 56.738h-376.486c-33.279 0-60.257 26.978-60.257 60.257v278.01c0 33.279 26.978 60.257 60.257 60.257h376.486c33.279 0 60.257-26.978 60.257-60.257v-278.01c0-33.279-26.978-60.257-60.257-60.257z" fill="#eeedff"/><path d="m98.5 243.586c0-73.325 16.461-139.553 58.744-186.848h-89.487c-33.279 0-60.257 26.978-60.257 60.257v278.011c0 33.279 26.978 60.257 60.257 60.257h139.61c-65.912-47.205-108.867-124.422-108.867-211.677z" fill="#d3d3ff"/><path d="m77.5 126.738h357v258.525h-357z" fill="#696eb1"/><path d="m213.998 170.751c-11.971-12.021-31.325-12.021-43.296 0-20.857 20.944-49.27 57.844-49.27 103.442 0 42.013 31.751 76.072 70.918 76.072s70.918-34.059 70.918-76.072c0-45.598-28.413-82.498-49.27-103.442z" fill="#7de2ff"/><path d="m145.846 267.261c0-44.657 31.237-82.013 73.052-91.422-1.666-1.783-3.307-3.487-4.9-5.087-11.971-12.021-31.325-12.021-43.296 0-20.857 20.944-49.27 57.844-49.27 103.442 0 42.013 31.751 76.072 70.918 76.072 1.174 0 2.341-.034 3.501-.095-29.736-15.71-50.005-46.941-50.005-82.91z" fill="#2ecffb"/><path d="m98.5 243.586c0-42.023 5.414-81.711 17.985-116.848h-38.985v258.525h62.936c-26.518-40.768-41.936-89.419-41.936-141.677z" fill="#4c5698"/></g><g><path d="m67.757 462.762h376.486c37.361 0 67.757-30.396 67.757-67.757v-278.01c0-37.361-30.396-67.757-67.757-67.757h-57.588c-4.142 0-7.5 3.358-7.5 7.5s3.358 7.5 7.5 7.5h57.588c29.09 0 52.757 23.667 52.757 52.757v278.01c0 29.09-23.667 52.757-52.757 52.757h-376.486c-29.09 0-52.757-23.667-52.757-52.757v-278.01c0-29.09 23.667-52.757 52.757-52.757h288.897c4.142 0 7.5-3.358 7.5-7.5s-3.358-7.5-7.5-7.5h-288.897c-37.361 0-67.757 30.395-67.757 67.757v278.01c0 37.362 30.396 67.757 67.757 67.757z"/><path d="m161.18 392.763h273.32c4.142 0 7.5-3.358 7.5-7.5v-258.525c0-4.142-3.358-7.5-7.5-7.5h-357c-4.142 0-7.5 3.358-7.5 7.5v258.525c0 4.142 3.358 7.5 7.5 7.5h53.68c4.142 0 7.5-3.358 7.5-7.5s-3.358-7.5-7.5-7.5h-46.18v-243.525h342v243.525h-265.82c-4.142 0-7.5 3.358-7.5 7.5s3.358 7.5 7.5 7.5z"/><path d="m31.275 256c0 6.199 5.025 11.225 11.224 11.225s11.225-5.025 11.225-11.225-5.025-11.225-11.225-11.225c-6.198 0-11.224 5.026-11.224 11.225z"/><path d="m478.366 256c0-4.897-3.97-8.867-8.867-8.867s-8.866 3.97-8.866 8.867 3.97 8.867 8.866 8.867c4.897 0 8.867-3.97 8.867-8.867z"/><path d="m192.35 357.765c21.044 0 40.804-8.761 55.632-24.667 14.693-15.761 22.786-36.681 22.786-58.905 0-26.032-8.927-66.028-51.456-108.734-7.208-7.237-16.783-11.223-26.962-11.223s-19.754 3.986-26.962 11.223c-42.528 42.707-51.456 82.702-51.456 108.734 0 22.224 8.092 43.144 22.786 58.905 14.828 15.906 34.585 24.667 55.632 24.667zm-44.661-34.895c-12.096-12.975-18.757-30.262-18.757-48.677 0-23.206 8.169-59.071 47.084-98.15 4.372-4.39 10.172-6.808 16.333-6.808s11.962 2.417 16.333 6.808c38.916 39.078 47.085 74.944 47.085 98.15 0 18.415-6.662 35.702-18.757 48.677-11.96 12.829-27.821 19.895-44.661 19.895s-32.7-7.066-44.66-19.895z"/><path d="m148.845 262.832c-4.142 0-7.5 3.358-7.5 7.5v8.359c0 4.142 3.358 7.5 7.5 7.5s7.5-3.358 7.5-7.5v-8.359c0-4.142-3.358-7.5-7.5-7.5z"/><path d="m235.854 286.191c4.142 0 7.5-3.358 7.5-7.5v-8.359c0-4.142-3.358-7.5-7.5-7.5s-7.5 3.358-7.5 7.5v8.359c0 4.142 3.357 7.5 7.5 7.5z"/><path d="m209.473 283.371c2.722-3.123 2.396-7.86-.726-10.582-3.123-2.721-7.86-2.396-10.582.727-1.47 1.686-3.589 2.653-5.816 2.653s-4.346-.967-5.816-2.653c-2.722-3.123-7.459-3.448-10.582-.727-3.123 2.722-3.448 7.459-.726 10.582 4.319 4.955 10.56 7.797 17.124 7.797s12.805-2.842 17.124-7.797z"/><path d="m366.175 163.675c-3.82-1.604-8.215.194-9.818 4.013l-40.427 96.328c-1.603 3.819.194 8.215 4.013 9.818 3.827 1.606 8.218-.201 9.818-4.013l40.427-96.328c1.603-3.819-.194-8.215-4.013-9.818z"/><path d="m312.106 155.601c-13.985 0-25.363 12.676-25.363 28.257s11.378 28.257 25.363 28.257 25.363-12.676 25.363-28.257-11.378-28.257-25.363-28.257zm0 41.515c-5.714 0-10.363-5.947-10.363-13.257s4.649-13.257 10.363-13.257 10.363 5.947 10.363 13.257-4.649 13.257-10.363 13.257z"/><path d="m372.705 227.462c-13.985 0-25.363 12.676-25.363 28.257s11.378 28.257 25.363 28.257 25.363-12.676 25.363-28.257-11.378-28.257-25.363-28.257zm0 41.515c-5.714 0-10.363-5.947-10.363-13.257s4.649-13.257 10.363-13.257 10.363 5.947 10.363 13.257-4.649 13.257-10.363 13.257z"/><path d="m389.883 311.332c0-4.142-3.358-7.5-7.5-7.5h-79.955c-4.142 0-7.5 3.358-7.5 7.5s3.358 7.5 7.5 7.5h79.955c4.142 0 7.5-3.358 7.5-7.5z"/><path d="m302.428 341.398c-4.142 0-7.5 3.358-7.5 7.5s3.358 7.5 7.5 7.5h59.955c4.142 0 7.5-3.358 7.5-7.5s-3.358-7.5-7.5-7.5z"/></g></g></svg>